REM DIRINDEX 1\4,1\2\5,1\2\6,1\3\7,1\3\8
REM DIRNAME folder01,folder02,folder03,folder04,folder05,folder06,folder07,folder08
TITLE ""
FILE "033_Day17_Check2_Phrases.mp3" MP3
  TRACK 01 AUDIO
    TITLE "0:"
    INDEX 01 00:00:00
  TRACK 02 AUDIO
    TITLE "4:cjc124_1059"
    INDEX 01 00:00:31
  TRACK 03 AUDIO
    TITLE "0:"
    INDEX 01 00:01:46
  TRACK 04 AUDIO
    TITLE "5:cjc124_1060"
    INDEX 01 00:02:04
  TRACK 05 AUDIO
    TITLE "0:"
    INDEX 01 00:03:59
  TRACK 06 AUDIO
    TITLE "6:cjc124_1061"
    INDEX 01 00:04:05
  TRACK 07 AUDIO
    TITLE "0:"
    INDEX 01 00:06:20
  TRACK 08 AUDIO
    TITLE "5:cjc124_1062"
    INDEX 01 00:06:61
  TRACK 09 AUDIO
    TITLE "0:"
    INDEX 01 00:08:52
  TRACK 10 AUDIO
    TITLE "6:cjc124_1063"
    INDEX 01 00:08:70
  TRACK 11 AUDIO
    TITLE "0:"
    INDEX 01 00:10:12
  TRACK 12 AUDIO
    TITLE "5:cjc124_1064"
    INDEX 01 00:10:53
  TRACK 13 AUDIO
    TITLE "0:"
    INDEX 01 00:12:26
  TRACK 14 AUDIO
    TITLE "6:cjc124_1065"
    INDEX 01 00:12:44
  TRACK 15 AUDIO
    TITLE "0:"
    INDEX 01 00:14:06
  TRACK 16 AUDIO
    TITLE "5:cjc124_1066"
    INDEX 01 00:14:45
  TRACK 17 AUDIO
    TITLE "0:"
    INDEX 01 00:16:26
  TRACK 18 AUDIO
    TITLE "6:cjc124_1067"
    INDEX 01 00:16:48
  TRACK 19 AUDIO
    TITLE "0:"
    INDEX 01 00:18:29
  TRACK 20 AUDIO
    TITLE "5:cjc124_1068"
    INDEX 01 00:19:03
  TRACK 21 AUDIO
    TITLE "0:"
    INDEX 01 00:20:61
  TRACK 22 AUDIO
    TITLE "6:cjc124_1069"
    INDEX 01 00:21:06
  TRACK 23 AUDIO
    TITLE "0:"
    INDEX 01 00:22:56
  TRACK 24 AUDIO
    TITLE "5:cjc124_1070"
    INDEX 01 00:23:22
  TRACK 25 AUDIO
    TITLE "0:"
    INDEX 01 00:24:69
  TRACK 26 AUDIO
    TITLE "6:cjc124_1071"
    INDEX 01 00:25:27
  TRACK 27 AUDIO
    TITLE "0:"
    INDEX 01 00:27:22
  TRACK 28 AUDIO
    TITLE "5:cjc124_1072"
    INDEX 01 00:27:61
  TRACK 29 AUDIO
    TITLE "0:"
    INDEX 01 00:29:44
  TRACK 30 AUDIO
    TITLE "6:cjc124_1073"
    INDEX 01 00:29:62
  TRACK 31 AUDIO
    TITLE "0:"
    INDEX 01 00:31:18
  TRACK 32 AUDIO
    TITLE "5:cjc124_1074"
    INDEX 01 00:31:57
  TRACK 33 AUDIO
    TITLE "0:"
    INDEX 01 00:33:62
  TRACK 34 AUDIO
    TITLE "6:cjc124_1075"
    INDEX 01 00:34:04
  TRACK 35 AUDIO
    TITLE "0:"
    INDEX 01 00:35:55
  TRACK 36 AUDIO
    TITLE "5:cjc124_1076"
    INDEX 01 00:36:19
  TRACK 37 AUDIO
    TITLE "0:"
    INDEX 01 00:37:67
  TRACK 38 AUDIO
    TITLE "6:cjc124_1077"
    INDEX 01 00:38:12
  TRACK 39 AUDIO
    TITLE "0:"
    INDEX 01 00:39:64
  TRACK 40 AUDIO
    TITLE "5:cjc124_1078"
    INDEX 01 00:40:26
  TRACK 41 AUDIO
    TITLE "0:"
    INDEX 01 00:41:69
  TRACK 42 AUDIO
    TITLE "6:cjc124_1079"
    INDEX 01 00:42:16
  TRACK 43 AUDIO
    TITLE "0:"
    INDEX 01 00:43:23
  TRACK 44 AUDIO
    TITLE "5:cjc124_1080"
    INDEX 01 00:43:66
  TRACK 45 AUDIO
    TITLE "0:"
    INDEX 01 00:45:61
  TRACK 46 AUDIO
    TITLE "6:cjc124_1081"
    INDEX 01 00:46:06
  TRACK 47 AUDIO
    TITLE "0:"
    INDEX 01 00:47:52
  TRACK 48 AUDIO
    TITLE "5:cjc124_1082"
    INDEX 01 00:48:18
  TRACK 49 AUDIO
    TITLE "0:"
    INDEX 01 00:50:21
  TRACK 50 AUDIO
    TITLE "6:cjc124_1083"
    INDEX 01 00:50:39
  TRACK 51 AUDIO
    TITLE "0:"
    INDEX 01 00:52:63
  TRACK 52 AUDIO
    TITLE "5:cjc124_1084"
    INDEX 01 00:53:27
  TRACK 53 AUDIO
    TITLE "0:"
    INDEX 01 00:55:06
  TRACK 54 AUDIO
    TITLE "6:cjc124_1085"
    INDEX 01 00:55:34
  TRACK 55 AUDIO
    TITLE "0:"
    INDEX 01 00:57:39
  TRACK 56 AUDIO
    TITLE "5:cjc124_1086"
    INDEX 01 00:58:09
  TRACK 57 AUDIO
    TITLE "0:"
    INDEX 01 00:59:59
  TRACK 58 AUDIO
    TITLE "6:cjc124_1087"
    INDEX 01 01:00:02
  TRACK 59 AUDIO
    TITLE "0:"
    INDEX 01 01:01:48
  TRACK 60 AUDIO
    TITLE "5:cjc124_1088"
    INDEX 01 01:02:10
  TRACK 61 AUDIO
    TITLE "0:"
    INDEX 01 01:03:57
  TRACK 62 AUDIO
    TITLE "6:cjc124_1089"
    INDEX 01 01:04:00
  TRACK 63 AUDIO
    TITLE "0:"
    INDEX 01 01:05:52
  TRACK 64 AUDIO
    TITLE "5:cjc124_1090"
    INDEX 01 01:06:18
  TRACK 65 AUDIO
    TITLE "0:"
    INDEX 01 01:08:03
  TRACK 66 AUDIO
    TITLE "6:cjc124_1091"
    INDEX 01 01:08:17
  TRACK 67 AUDIO
    TITLE "0:"
    INDEX 01 01:10:00
